<?xml version="1.0" standalone="no"?>
<!DOCTYPE svg PUBLIC "-//W3C//DTD SVG 20010904//EN"
 "http://www.w3.org/TR/2001/REC-SVG-20010904/DTD/svg10.dtd">
<svg version="1.0" xmlns="http://www.w3.org/2000/svg"
 width="1000.000000pt" height="500.000000pt" viewBox="0 0 1000.000000 500.000000"
 preserveAspectRatio="xMidYMid meet">

<g transform="translate(0.000000,500.000000) scale(0.100000,-0.100000)"
fill="#fff" stroke="none">
<path d="M824 4773 c-28 -25 -45 -71 -94 -258 -23 -88 -62 -230 -87 -315 -63
-216 -82 -311 -89 -442 -6 -130 6 -168 65 -202 96 -56 338 -77 626 -56 235 17
267 19 292 20 39 0 82 50 174 203 50 84 119 190 154 237 132 181 132 184 -52
358 -213 201 -316 261 -621 361 -97 32 -199 68 -225 80 -73 32 -118 37 -143
14z m288 -308 c175 -56 278 -101 377 -165 81 -52 173 -140 185 -177 5 -16 -12
-49 -67 -134 -40 -63 -88 -140 -106 -172 -18 -31 -40 -61 -49 -66 -9 -5 -84
-14 -167 -20 -176 -12 -326 -2 -427 30 l-68 22 0 38 c0 48 23 143 93 384 30
105 60 216 67 248 7 31 15 57 18 57 2 0 67 -20 144 -45z"/>
<path d="M4120 4754 c-46 -19 -148 -55 -225 -79 -187 -61 -357 -146 -465 -233
-117 -96 -277 -261 -286 -296 -9 -36 8 -67 94 -185 35 -47 104 -152 153 -233
99 -161 137 -205 183 -212 50 -8 423 -26 528 -26 180 0 358 38 410 88 42 39
51 80 43 191 -9 122 -32 230 -100 456 -29 99 -70 241 -90 315 -44 163 -62 216
-82 235 -23 23 -71 17 -163 -21z m30 -296 c7 -29 39 -141 70 -248 77 -257 89
-305 92 -370 l3 -55 -65 -22 c-95 -31 -257 -44 -430 -32 -80 5 -152 12 -160
15 -8 2 -46 57 -85 121 -38 64 -89 143 -113 175 l-43 59 33 49 c75 112 258
221 518 309 80 27 150 50 157 50 6 1 17 -23 23 -51z"/>
<path d="M2543 4760 c-24 -27 -126 -192 -160 -255 -14 -27 -38 -68 -53 -90
-15 -22 -47 -76 -72 -120 -145 -261 -196 -348 -242 -420 -29 -44 -73 -112 -98
-151 -102 -156 -219 -425 -265 -608 -47 -185 -24 -299 93 -463 145 -203 323
-324 573 -390 83 -22 118 -26 256 -26 142 -1 172 2 267 26 414 103 684 410
679 772 -3 206 -115 478 -333 810 -68 105 -136 210 -150 235 -101 181 -184
319 -204 341 -13 14 -24 28 -24 31 0 7 -76 119 -153 227 -69 96 -89 110 -114
81z m71 -523 c10 -17 37 -66 60 -107 23 -42 103 -166 179 -277 110 -162 153
-236 218 -375 105 -223 149 -352 149 -432 0 -71 -49 -224 -95 -296 -38 -60
-119 -138 -188 -178 -98 -59 -188 -84 -318 -90 -138 -6 -230 11 -335 62 -173
83 -270 206 -310 396 -30 141 -14 206 123 510 65 142 105 213 213 375 73 110
151 234 173 275 50 94 97 170 106 170 3 0 15 -15 25 -33z"/>
<path d="M4730 3525 c-63 -18 -167 -50 -230 -70 -144 -45 -250 -53 -582 -42
-268 9 -285 6 -316 -59 -15 -33 -15 -38 2 -82 44 -114 67 -234 62 -317 -7
-131 -70 -284 -167 -410 -28 -37 -55 -84 -60 -103 -16 -70 37 -144 139 -196
138 -69 489 -97 657 -52 140 38 274 129 359 244 82 113 151 293 212 554 19 84
51 199 69 255 33 101 107 243 125 243 6 0 10 9 10 21 0 27 -54 49 -117 48 -26
0 -100 -15 -163 -34z m-85 -267 c-4 -13 -24 -93 -44 -178 -115 -475 -210 -627
-428 -685 -75 -20 -285 -21 -340 -2 -34 12 -113 63 -113 73 0 1 24 49 54 106
102 194 136 364 105 536 -8 42 -14 82 -14 87 0 6 68 9 190 7 228 -4 369 10
484 48 109 36 115 36 106 8z"/>
<path d="M198 3525 c-46 -25 -44 -49 7 -118 73 -96 122 -212 170 -402 55 -217
88 -319 136 -423 114 -248 280 -375 538 -413 99 -14 276 -6 366 16 33 8 84 19
113 25 64 11 162 69 198 116 16 20 28 52 31 77 5 45 7 40 -102 196 -49 71 -97
178 -121 273 -22 83 -14 195 21 308 37 117 41 155 20 186 -32 49 -67 55 -242
44 -205 -13 -441 -13 -523 1 -36 5 -126 30 -200 54 -232 76 -350 93 -412 60z
m528 -312 c66 -15 121 -18 337 -18 l259 0 -9 -55 c-4 -30 -8 -109 -8 -175 0
-106 4 -130 29 -205 15 -47 54 -134 84 -193 l57 -108 -30 -24 c-59 -48 -94
-58 -217 -63 -195 -8 -307 28 -408 130 -101 103 -165 274 -277 745 l-5 23 55
-19 c30 -11 90 -27 133 -38z"/>
<path d="M5365 3076 c-55 -25 -123 -93 -153 -153 -65 -126 -89 -328 -58 -483
46 -230 163 -356 331 -354 41 1 86 8 109 18 21 9 40 16 42 16 12 0 69 -132 73
-170 l6 -44 63 97 c34 54 62 100 62 103 0 2 -8 4 -19 4 -12 0 -31 20 -53 58
l-34 57 27 60 c47 100 62 177 61 310 -1 193 -46 329 -142 426 -80 80 -212 103
-315 55z m203 -165 c70 -37 122 -172 122 -315 0 -80 -17 -176 -37 -209 -3 -4
-27 12 -53 37 -54 50 -98 60 -132 29 -25 -23 -23 -36 12 -61 38 -29 86 -110
73 -123 -22 -22 -89 -22 -136 -1 -54 24 -98 84 -125 172 -22 73 -22 235 1 311
45 151 163 220 275 160z"/>
<path d="M6995 2930 c-6 -19 -15 -20 -236 -20 -193 0 -229 -2 -229 -14 0 -8 5
-18 10 -21 6 -4 10 -138 10 -370 0 -232 -4 -366 -10 -370 -5 -3 -10 -13 -10
-21 0 -12 37 -14 236 -14 227 0 236 -1 241 -20 13 -50 23 -10 23 95 0 105 -10
145 -23 95 -5 -19 -14 -20 -171 -20 l-166 0 0 95 0 95 104 0 c98 0 104 -1 112
-22 6 -18 9 -9 11 34 6 87 -1 188 -11 160 -11 -29 -33 -34 -131 -30 l-80 3 -3
88 -3 87 159 0 c155 0 159 -1 170 -22 8 -18 11 3 11 95 1 64 -1 117 -3 117 -3
0 -8 -9 -11 -20z"/>
<path d="M7060 2835 c0 -105 10 -145 23 -95 5 18 14 20 86 20 l81 0 0 -309 c0
-261 -2 -310 -15 -321 -27 -22 -5 -30 81 -30 83 0 98 6 69 30 -13 11 -15 59
-15 321 l0 309 79 0 c70 0 80 -2 94 -22 15 -21 16 -15 16 97 0 112 -1 118 -16
98 -15 -23 -19 -23 -235 -23 -211 0 -220 1 -225 20 -13 50 -23 10 -23 -95z"/>
<path d="M7600 2835 c0 -105 10 -145 23 -95 5 19 14 20 131 20 69 0 126 -2
126 -4 0 -1 -63 -139 -140 -306 -77 -167 -140 -313 -140 -326 l0 -24 227 -2
227 -3 13 -25 c11 -21 13 -7 12 100 0 97 -3 120 -11 103 -11 -22 -16 -23 -144
-23 l-133 0 28 63 c16 34 81 175 145 314 64 138 116 259 116 267 0 14 -28 16
-226 16 -217 0 -226 1 -231 20 -13 50 -23 10 -23 -95z"/>
<path d="M5900 2896 c0 -8 6 -16 13 -18 9 -4 13 -80 17 -319 5 -297 6 -316 27
-354 45 -85 109 -119 223 -118 111 0 177 39 217 128 15 35 18 81 23 347 4 227
8 310 18 320 23 23 12 28 -68 28 -63 0 -80 -3 -80 -14 0 -8 5 -18 10 -21 6 -4
10 -105 10 -272 0 -292 -5 -319 -61 -348 -39 -21 -108 -19 -145 4 -54 33 -59
65 -59 355 0 199 3 260 13 263 6 3 12 11 12 19 0 11 -18 14 -85 14 -67 0 -85
-3 -85 -14z"/>
<path d="M8140 2901 c0 -5 6 -14 14 -20 12 -10 15 -70 18 -314 5 -318 8 -341
54 -403 77 -104 312 -105 385 -2 46 64 52 106 56 413 3 160 9 294 14 300 26
26 8 35 -71 35 -44 0 -80 -3 -80 -7 0 -5 7 -17 15 -27 12 -16 15 -64 15 -258
0 -144 -4 -257 -11 -284 -16 -64 -56 -94 -124 -94 -65 0 -109 31 -125 88 -5
21 -10 148 -10 288 0 211 2 254 15 264 29 24 14 30 -75 30 -49 0 -90 -4 -90
-9z"/>
<path d="M8940 2896 c0 -8 5 -18 10 -21 6 -3 10 -20 10 -37 0 -44 -188 -668
-211 -700 -10 -15 -19 -30 -19 -33 0 -3 41 -5 90 -5 50 0 90 2 90 5 0 3 -7 17
-16 30 -15 23 -15 30 2 95 l18 71 115 -3 114 -3 18 -50 c22 -63 23 -99 4 -115
-29 -24 -14 -30 85 -30 55 0 100 2 100 5 0 3 -9 18 -19 33 -16 22 -206 599
-225 682 -3 14 1 38 9 54 8 16 15 30 15 32 0 2 -43 4 -95 4 -76 0 -95 -3 -95
-14z m130 -359 c18 -60 30 -110 27 -113 -2 -3 -36 -4 -74 -2 l-70 3 36 123
c19 67 38 117 42 110 3 -7 21 -62 39 -121z"/>
<path d="M9390 2903 c0 -5 7 -17 15 -27 23 -30 22 -728 0 -746 -8 -7 -15 -16
-15 -21 0 -5 99 -9 221 -9 212 0 221 -1 226 -20 13 -50 23 -10 23 95 0 105
-10 145 -23 95 -5 -19 -14 -20 -151 -20 l-146 0 0 309 c0 196 4 312 10 316 6
3 10 13 10 21 0 11 -18 14 -85 14 -47 0 -85 -3 -85 -7z"/>
<path d="M4776 2425 c-25 -13 -75 -48 -181 -127 -280 -209 -394 -256 -660
-273 -187 -11 -189 -14 -182 -337 5 -216 7 -242 26 -282 23 -47 72 -76 131
-76 42 0 158 -26 221 -49 30 -12 113 -55 184 -97 382 -223 580 -259 713 -131
40 38 42 78 8 145 -33 66 -54 152 -50 204 2 24 9 177 15 340 11 267 11 311 -5
430 -22 171 -29 198 -65 232 -37 36 -110 46 -155 21z m-2 -361 c6 -59 6 -164
-2 -314 -16 -296 -15 -381 4 -458 9 -35 14 -66 11 -68 -11 -11 -170 60 -282
127 -231 137 -327 177 -448 188 l-72 6 0 125 0 125 100 17 c128 22 206 47 330
108 102 49 233 140 295 204 19 20 39 35 45 33 5 -2 14 -44 19 -93z"/>
<path d="M314 2321 c-51 -31 -74 -79 -84 -178 -6 -48 -12 -99 -16 -112 -9 -40
-6 -357 6 -521 17 -243 8 -327 -49 -438 -30 -59 -27 -92 11 -130 129 -124 327
-75 698 171 185 123 286 167 436 192 57 9 98 36 119 81 17 34 19 71 23 296 l4
257 -29 29 -28 29 -155 1 c-245 2 -352 37 -590 193 -80 53 -166 108 -191 122
-55 32 -111 35 -155 8z m219 -309 c175 -143 383 -226 597 -241 l95 -6 8 -55
c5 -30 5 -87 2 -126 l-6 -71 -67 -11 c-70 -12 -172 -49 -232 -85 -19 -11 -102
-64 -185 -118 -156 -101 -281 -169 -309 -169 -19 0 -19 1 -6 36 24 61 30 166
20 332 -16 264 -12 572 7 572 3 0 37 -26 76 -58z"/>
<path d="M1659 2151 c-46 -15 -66 -30 -83 -65 -14 -31 -16 -123 -16 -941 0
-987 -3 -938 56 -984 27 -21 28 -21 976 -21 1042 0 993 -3 1039 61 l24 34 3
875 c2 481 0 894 -3 918 -9 58 -52 106 -109 121 -52 13 -1844 14 -1887 2z
m1601 -229 c0 -7 -682 -660 -1289 -1234 l-176 -166 -3 691 c-1 381 0 698 3
705 3 9 160 12 735 12 401 0 730 -4 730 -8z m170 -868 l0 -684 -725 0 c-399 0
-725 2 -725 5 0 2 319 308 709 680 391 371 713 679 716 685 4 6 11 8 16 5 5
-4 9 -279 9 -691z"/>
<path d="M8423 500 c-34 -14 -43 -42 -43 -129 l0 -81 35 0 c31 0 35 3 35 25 0
14 5 25 10 25 6 0 10 14 10 30 0 17 -5 30 -11 30 -6 0 -9 10 -7 23 2 12 8 22
13 22 6 0 11 -34 13 -77 l3 -78 34 0 35 0 0 90 c0 77 -3 93 -20 110 -21 21
-68 26 -107 10z"/>
<path d="M8784 496 c-44 -19 -64 -53 -64 -104 0 -77 76 -125 161 -102 40 11
79 51 79 81 0 27 -61 26 -78 -1 -14 -22 -61 -27 -80 -8 -20 20 -14 56 14 74
24 16 26 16 54 -5 34 -25 90 -29 90 -6 0 8 -13 29 -28 46 -33 37 -98 48 -148
25z"/>
<path d="M9182 494 c-64 -33 -81 -110 -36 -163 54 -65 155 -61 201 8 32 48 30
84 -10 127 -40 44 -102 55 -155 28z m98 -64 c24 -24 24 -29 4 -58 -26 -37 -94
-20 -94 24 0 19 36 54 55 54 8 0 24 -9 35 -20z"/>
<path d="M9564 484 c-26 -26 -28 -51 -9 -111 6 -19 4 -23 -14 -23 -16 0 -21
-6 -21 -29 0 -36 29 -46 76 -26 40 17 52 53 34 103 -11 31 -10 37 4 47 9 7 16
24 16 39 0 22 -4 26 -30 26 -20 0 -40 -9 -56 -26z"/>
<path d="M8050 470 c0 -25 4 -30 25 -30 24 0 25 -2 25 -75 l0 -75 35 0 35 0 0
75 c0 73 1 75 25 75 21 0 25 5 25 30 l0 30 -85 0 -85 0 0 -30z"/>
<path d="M8260 341 c-12 -24 -4 -48 18 -53 40 -11 73 29 46 56 -21 22 -51 20
-64 -3z"/>
<path d="M8612 348 c-32 -32 8 -80 48 -58 34 18 19 70 -20 70 -9 0 -21 -5 -28
-12z"/>
<path d="M9012 348 c-32 -32 10 -78 51 -56 32 16 15 68 -23 68 -9 0 -21 -5
-28 -12z"/>
<path d="M9416 344 c-21 -21 -4 -54 28 -54 33 0 50 23 36 49 -13 25 -42 27
-64 5z"/>
<path d="M9702 351 c-8 -4 -12 -19 -10 -32 4 -34 63 -41 73 -9 12 37 -28 63
-63 41z"/>
</g>
</svg>
